<svg version="1.1" id="Layer_1" xmlns="http://www.w3.org/2000/svg" xmlns:xlink="http://www.w3.org/1999/xlink" x="0px" y="0px"
	 width="100%" viewBox="0 0 1353 233" enable-background="new 0 0 1353 233" xml:space="preserve">
<path fill="transparent" opacity="1.000000" stroke="none" 
	d="
M1004.000000,234.000000 
	C669.333313,234.000000 335.166656,234.000000 1.000000,234.000000 
	C1.000000,156.333328 1.000000,78.666664 1.000000,1.000000 
	C452.000000,1.000000 903.000000,1.000000 1354.000000,1.000000 
	C1354.000000,78.666664 1354.000000,156.333328 1354.000000,234.000000 
	C1237.500000,234.000000 1121.000000,234.000000 1004.000000,234.000000 
M171.480804,91.968964 
	C166.472229,106.054581 161.203125,120.054466 156.530991,134.250809 
	C152.171112,147.498276 148.226730,160.894302 144.526566,174.342453 
	C142.458603,181.858429 145.676529,186.177704 153.287338,187.500793 
	C161.426239,188.915726 166.957275,185.971085 171.795349,177.189941 
	C174.677185,171.959396 176.986877,166.414810 179.838638,161.166199 
	C183.084961,155.191498 188.135010,152.158447 195.101944,153.191849 
	C201.673294,154.166580 208.243210,155.182419 214.771652,156.404907 
	C219.630966,157.314850 221.438278,159.983368 221.524796,165.413849 
	C221.714630,177.328888 222.352524,189.344101 224.235596,201.089447 
	C225.634827,209.816879 231.305954,216.427612 240.180923,219.389450 
	C254.256927,224.087051 263.714600,217.045135 264.304535,202.275223 
	C265.460846,173.324722 267.371002,144.402786 268.376801,115.448456 
	C268.895569,100.514336 269.111694,85.441162 267.657959,70.607864 
	C266.500549,58.797852 262.413849,47.295971 259.963745,35.586956 
	C255.628067,14.867207 244.596161,7.878632 223.007889,8.068451 
	C218.672272,8.106571 216.308929,10.184369 216.413101,14.911436 
	C216.589203,22.903086 216.209091,30.912449 216.558243,38.892689 
	C216.752747,43.338184 214.854065,44.674248 210.995453,44.126240 
	C207.724976,43.661755 204.467300,42.996109 201.266006,42.176975 
	C193.023544,40.067944 192.417877,40.028130 189.191910,47.769005 
	C183.187317,62.177330 177.580017,76.751221 171.480804,91.968964 
M998.304199,43.681179 
	C987.526245,71.563515 976.364441,99.305824 966.121643,127.383362 
	C960.438293,142.962631 956.088135,159.044449 951.545715,175.016006 
	C949.652527,181.672638 952.878052,185.945663 959.627563,187.324081 
	C967.839661,189.001160 973.260864,186.678574 977.945374,178.703476 
	C981.218262,173.131546 983.710449,167.106537 986.830688,161.437653 
	C989.321777,156.911667 992.833435,152.755463 998.428772,153.256836 
	C1006.995544,154.024414 1015.500732,155.617340 1023.981873,157.139389 
	C1027.570557,157.783463 1028.810791,160.217361 1028.711548,164.083542 
	C1028.489746,172.722885 1028.430786,181.414413 1029.133179,190.017105 
	C1029.987671,200.483765 1032.432495,210.650650 1042.123169,216.843994 
	C1048.386963,220.847244 1055.453247,222.678528 1062.505737,219.203339 
	C1069.601440,215.706802 1071.185059,209.102219 1071.493408,201.599625 
	C1072.649414,173.476547 1074.506226,145.379608 1075.434692,117.250900 
	C1075.955200,101.483658 1076.113403,85.585564 1074.658691,69.911255 
	C1073.578003,58.268311 1069.398193,46.940273 1067.030396,35.383549 
	C1062.692993,14.214798 1050.697266,7.804368 1029.917358,8.086635 
	C1025.866699,8.141656 1023.533203,10.082917 1023.654480,14.656171 
	C1023.866455,22.647638 1023.450378,30.660681 1023.811829,38.641388 
	C1024.023071,43.306053 1021.986877,44.755119 1017.956482,44.111240 
	C1013.543091,43.406197 1009.225586,42.023575 1004.799744,41.510532 
	C1002.868774,41.286697 1000.772095,42.492729 998.304199,43.681179 
M391.329376,179.867905 
	C400.702484,173.082031 409.392303,165.614166 415.067169,155.281921 
	C421.676697,143.247864 419.216400,135.645752 406.726471,130.038895 
	C395.350677,124.932152 383.189301,123.113892 370.879761,121.999855 
	C358.303070,120.861626 346.559753,124.961258 334.534027,127.437866 
	C327.663239,128.852859 320.651215,129.582077 313.682556,130.623093 
	C311.684967,113.728821 336.370941,76.236298 354.589478,67.817909 
	C353.949158,70.688553 353.749023,73.115250 352.862305,75.257805 
	C350.703522,80.474022 348.204468,85.548630 345.883148,90.698586 
	C343.510040,95.963257 343.900665,99.223343 348.833466,102.264404 
	C353.860657,105.363647 359.383301,107.970665 365.023895,109.702339 
	C379.209076,114.057182 383.176636,112.478127 390.945068,99.779465 
	C400.385468,84.347771 406.739624,67.591072 411.065582,50.069534 
	C413.179718,41.506733 411.788086,37.190475 403.950073,33.002888 
	C383.175476,21.903757 362.246521,17.851162 340.943268,32.446068 
	C315.901154,49.602440 295.687286,71.069778 281.115234,97.696320 
	C278.350311,102.748489 276.275848,108.296318 274.677460,113.844398 
	C271.432831,125.106651 274.488190,132.850128 284.499298,138.938614 
	C288.571442,141.415176 293.054108,143.526062 297.628632,144.811859 
	C314.289246,149.494781 331.188873,151.488525 348.463898,148.309296 
	C354.081299,147.275497 359.834564,146.979996 365.525696,146.346832 
	C365.922180,146.855484 366.318695,147.364136 366.715179,147.872787 
	C364.582123,151.668381 363.186279,156.251740 360.155518,159.088058 
	C354.625092,164.263626 348.433685,168.912064 341.948334,172.839752 
	C334.867249,177.128250 327.081848,180.239426 319.734924,184.113144 
	C317.878754,185.091843 316.523407,187.020370 314.937927,188.512436 
	C316.707306,189.870865 318.281952,191.893295 320.278046,192.478745 
	C332.231812,195.984726 344.544708,197.128769 356.830505,195.333191 
	C369.399963,193.496155 380.330597,187.324722 391.329376,179.867905 
M812.012817,155.508194 
	C811.939148,167.167755 812.264893,178.848557 811.646667,190.479172 
	C811.256653,197.816147 814.364258,202.659225 820.040405,206.227570 
	C823.523804,208.417465 827.303711,210.326965 831.195312,211.633209 
	C837.666504,213.805344 840.694580,212.053574 843.035400,205.575180 
	C843.484924,204.330887 843.866577,203.024246 844.018616,201.716049 
	C845.726624,187.019012 847.609314,172.337036 848.979370,157.607681 
	C849.988342,146.759766 854.019104,144.232086 863.954102,148.399246 
	C874.972961,153.020996 886.060669,157.548676 897.357971,161.417572 
	C909.345154,165.522690 921.730530,168.151993 934.535400,167.955246 
	C938.014038,167.901794 942.198853,168.295914 943.334534,164.071640 
	C944.500122,159.735550 940.440674,158.021042 937.479248,156.484116 
	C932.926270,154.121170 928.236755,151.704651 923.315430,150.425507 
	C906.129761,145.958618 890.446899,137.913605 874.421082,130.664307 
	C869.950256,128.641953 869.742615,126.958275 873.880859,124.158150 
	C879.112793,120.618027 884.528320,117.348030 889.884338,113.993019 
	C907.217285,103.135597 924.654358,92.440193 941.848083,81.366875 
	C948.183655,77.286583 948.821838,73.661095 944.022400,67.883606 
	C932.136658,53.575733 916.355042,44.454906 898.240967,43.074871 
	C867.796814,40.755455 837.824585,45.945980 808.725708,55.149158 
	C802.036743,57.264687 795.511780,60.686607 789.737183,64.696648 
	C783.186829,69.245483 783.706421,73.918205 790.233459,78.389534 
	C796.270691,82.525307 802.447021,86.458054 808.564636,90.476379 
	C811.838562,92.626846 813.472656,95.299469 813.325684,99.569656 
	C812.695618,117.877243 812.432068,136.197449 812.012817,155.508194 
M48.924377,182.582214 
	C53.877129,185.623444 58.608894,189.128433 63.826191,191.614502 
	C76.827766,197.809814 90.414474,201.344467 104.930832,197.972458 
	C117.741692,194.996643 127.600182,187.283463 136.665192,178.162872 
	C139.466385,175.344513 140.200729,172.431595 139.846771,168.783890 
	C138.633606,156.281235 129.984406,150.479050 118.203201,154.642288 
	C114.164169,156.069611 110.326492,158.175827 106.580055,160.295715 
	C101.372414,163.242401 96.571388,167.009201 91.161232,169.467377 
	C85.950775,171.834824 80.259422,173.313278 74.640228,174.550339 
	C71.075439,175.335129 68.579475,173.791519 68.875420,169.327423 
	C69.161308,165.014954 69.211426,160.645981 68.856903,156.343704 
	C68.519539,152.249573 70.331863,150.165588 73.931145,148.969528 
	C81.814270,146.349945 89.917984,144.209000 97.476784,140.849289 
	C105.438278,137.310593 113.306526,133.183289 120.335571,128.097092 
	C123.501076,125.806549 125.680809,120.740456 126.311974,116.627434 
	C128.157425,104.601440 119.800873,97.902832 108.379951,101.756180 
	C103.828743,103.291710 99.532127,105.565681 95.036865,107.287453 
	C89.995117,109.218506 84.859741,110.905075 79.273193,112.871140 
	C79.107948,110.765038 78.884377,109.787704 78.978928,108.842194 
	C80.624123,92.390579 83.848465,76.256447 90.124619,60.933655 
	C91.280487,58.111671 94.598106,55.528667 97.534958,54.218864 
	C103.423561,51.592609 109.855164,50.209019 115.842941,47.772587 
	C121.339996,45.535828 126.736420,42.903168 131.822525,39.853458 
	C135.680328,37.540253 137.004654,33.538040 136.254364,28.971516 
	C135.010208,21.399202 129.431946,18.454670 120.302437,20.213972 
	C106.099617,22.950920 91.767960,25.074432 77.648590,28.175802 
	C58.354622,32.413792 39.141804,37.072849 20.045929,42.124912 
	C15.253785,43.392731 8.389625,44.708733 8.232216,51.118694 
	C8.075168,57.513969 14.768687,59.275330 19.488586,61.793938 
	C24.318172,64.371078 29.372751,66.539658 34.391094,68.745453 
	C37.819145,70.252228 39.504173,72.424736 39.163578,76.433159 
	C38.544228,83.722206 38.700161,91.084900 37.918007,98.350708 
	C36.338787,113.020859 28.537493,122.526390 16.059345,125.588875 
	C13.804081,126.142372 11.461249,126.330872 9.168574,126.742119 
	C5.923539,127.324188 5.105929,129.247467 7.280778,131.591660 
	C10.301684,134.847763 13.267519,138.724945 17.106262,140.533768 
	C25.119030,144.309433 29.374237,150.645264 31.650532,158.538925 
	C34.506424,168.442505 40.427013,175.947708 48.924377,182.582214 
M1182.396118,66.856186 
	C1189.344727,64.588661 1196.426758,62.655052 1203.199219,59.946983 
	C1208.525391,57.817234 1213.836182,55.243664 1218.474487,51.919384 
	C1222.677124,48.907303 1223.415405,42.902473 1221.368652,38.815563 
	C1218.425537,32.938938 1210.924927,28.430445 1204.433105,29.758123 
	C1182.945190,34.152664 1161.385254,38.346951 1140.151733,43.784557 
	C1121.993408,48.434597 1104.219604,54.606842 1086.352783,60.345852 
	C1084.258301,61.018627 1081.032227,63.406197 1081.179932,64.664406 
	C1081.439087,66.873444 1083.586914,69.215866 1085.526245,70.780411 
	C1087.811279,72.624016 1090.707031,73.716484 1093.353760,75.104675 
	C1096.589600,76.801895 1099.875977,78.406075 1103.076904,80.166069 
	C1105.939331,81.740021 1106.919067,84.142906 1107.150391,87.527115 
	C1107.887329,98.308777 1104.213257,108.185425 1101.545654,118.278557 
	C1096.566772,137.116898 1091.508423,155.938095 1092.163330,175.688049 
	C1092.216309,177.284943 1092.162842,179.311752 1093.060303,180.385818 
	C1099.406738,187.982315 1107.938354,190.131516 1117.348145,188.976776 
	C1124.849731,188.056183 1128.074707,182.402496 1130.190186,175.934631 
	C1131.532471,171.830338 1132.644043,167.645798 1134.109375,163.587646 
	C1136.209351,157.772354 1140.109741,153.805664 1146.245483,152.053787 
	C1152.794556,150.183945 1159.246826,147.977264 1165.758911,145.974518 
	C1184.514526,140.206253 1202.463257,133.065292 1216.429810,118.385017 
	C1219.717529,114.929214 1219.664185,111.754761 1217.722778,108.069969 
	C1214.512939,101.977425 1208.183472,99.085159 1201.287109,100.801414 
	C1187.576050,104.213562 1173.914429,107.823868 1160.221436,111.309456 
	C1154.302002,112.816277 1152.942993,111.802971 1153.211914,105.660591 
	C1153.371216,102.021942 1153.762817,98.327675 1154.620117,94.796844 
	C1158.145386,80.278610 1168.443359,72.223183 1182.396118,66.856186 
M745.141907,38.180901 
	C743.483398,38.029018 741.822571,37.899551 740.166809,37.721878 
	C717.291138,35.267166 703.516724,42.555321 692.789062,62.892303 
	C691.320190,65.676865 689.936707,68.544273 688.885254,71.505280 
	C679.554016,97.783775 677.589417,124.553856 682.248169,152.126282 
	C684.440796,165.103378 691.904724,172.073334 703.326538,176.050629 
	C717.089417,180.843109 731.302734,182.137314 745.665405,179.779144 
	C762.838745,176.959473 778.708679,160.269730 780.538635,143.706543 
	C781.936218,131.056168 772.693298,120.995926 760.622681,121.900520 
	C754.914734,122.328278 751.108765,125.686714 748.028809,129.957001 
	C744.237183,135.213989 740.918762,140.812576 737.119080,146.063278 
	C734.144165,150.174286 730.543152,153.585388 724.507202,152.689270 
	C721.106201,138.763672 721.728027,124.750397 723.631348,110.942001 
	C725.023499,100.842331 728.090637,90.940010 730.892151,81.086464 
	C731.860413,77.680962 734.247742,74.652252 739.162598,74.020653 
	C738.814331,77.996353 738.545227,81.583572 738.177246,85.160622 
	C737.414124,92.579262 739.373413,96.884613 746.514954,99.090248 
	C752.432312,100.917801 758.840271,101.638573 765.066711,101.865860 
	C773.376648,102.169189 777.338135,99.366180 778.791565,91.142944 
	C780.252380,82.877579 780.631348,74.323341 780.534241,65.906662 
	C780.429321,56.817749 775.306519,49.943737 767.423523,46.060741 
	C760.656250,42.727352 753.168762,40.856110 745.141907,38.180901 
M1263.020142,148.443802 
	C1263.382690,153.253738 1263.438354,158.110809 1264.168457,162.864258 
	C1265.929565,174.328949 1271.004272,183.322403 1283.168213,186.540176 
	C1296.977539,190.193222 1302.775879,187.542099 1305.813721,173.601440 
	C1308.559937,160.999161 1310.013550,148.015198 1310.865356,135.122116 
	C1312.368286,112.379280 1312.779419,89.566246 1314.061401,66.805908 
	C1314.580933,57.579407 1316.584961,56.064384 1325.671875,53.909321 
	C1330.173340,52.841728 1334.854614,51.938896 1338.964844,49.949894 
	C1345.589111,46.744320 1345.756470,39.909176 1339.416748,36.351753 
	C1332.019165,32.200901 1323.914673,29.965664 1315.443359,31.675589 
	C1295.085693,35.784760 1274.796631,40.236290 1254.495850,44.623550 
	C1245.280396,46.615089 1236.103027,48.781872 1226.814453,50.890461 
	C1227.305664,56.708931 1231.457153,58.584419 1235.439819,59.926437 
	C1243.136841,62.519985 1251.028931,64.535599 1258.843262,66.779518 
	C1263.019531,67.978729 1264.981201,70.285080 1264.824585,75.070580 
	C1264.035522,99.194061 1263.585815,123.328644 1263.020142,148.443802 
M487.710938,94.098236 
	C483.180847,101.999840 480.531891,102.344856 474.682343,95.060928 
	C469.581390,88.709145 465.440369,81.546394 460.041229,75.484764 
	C454.011017,68.714661 447.391144,62.350372 440.356049,56.636734 
	C435.671478,52.832138 429.570740,51.800255 422.073761,53.339790 
	C423.250031,56.904846 423.637482,60.476185 425.433197,63.074150 
	C430.917450,71.008499 437.113739,78.446922 442.718079,86.302963 
	C450.631836,97.396255 458.524780,108.521477 465.931732,119.953712 
	C471.630829,128.749954 471.838928,138.452652 468.465485,148.266434 
	C466.791534,153.136093 464.666016,157.895248 463.487061,162.879944 
	C461.665222,170.582764 460.296722,178.407974 459.092773,186.236160 
	C458.358429,191.010880 461.663727,193.107529 465.729309,194.007797 
	C469.930176,194.938019 473.722992,194.094284 476.321503,190.329132 
	C481.889465,182.261383 488.305237,174.617706 492.756073,165.967941 
	C511.758423,129.038315 530.317322,91.877525 548.718750,54.643299 
	C554.837341,42.262703 553.620667,39.571404 541.589233,32.117023 
	C540.181091,31.244593 538.696106,30.469528 537.178772,29.804543 
	C528.687561,26.083218 522.193787,26.786474 516.567566,33.994434 
	C511.311615,40.728130 506.805206,48.271179 503.225098,56.037121 
	C497.599854,68.239273 493.029388,80.927696 487.710938,94.098236 
z"/>
<path fill="#059669" opacity="1.000000" stroke="none" 
	d="
M171.644073,91.612579 
	C177.580017,76.751221 183.187317,62.177330 189.191910,47.769005 
	C192.417877,40.028130 193.023544,40.067944 201.266006,42.176975 
	C204.467300,42.996109 207.724976,43.661755 210.995453,44.126240 
	C214.854065,44.674248 216.752747,43.338184 216.558243,38.892689 
	C216.209091,30.912449 216.589203,22.903086 216.413101,14.911436 
	C216.308929,10.184369 218.672272,8.106571 223.007889,8.068451 
	C244.596161,7.878632 255.628067,14.867207 259.963745,35.586956 
	C262.413849,47.295971 266.500549,58.797852 267.657959,70.607864 
	C269.111694,85.441162 268.895569,100.514336 268.376801,115.448456 
	C267.371002,144.402786 265.460846,173.324722 264.304535,202.275223 
	C263.714600,217.045135 254.256927,224.087051 240.180923,219.389450 
	C231.305954,216.427612 225.634827,209.816879 224.235596,201.089447 
	C222.352524,189.344101 221.714630,177.328888 221.524796,165.413849 
	C221.438278,159.983368 219.630966,157.314850 214.771652,156.404907 
	C208.243210,155.182419 201.673294,154.166580 195.101944,153.191849 
	C188.135010,152.158447 183.084961,155.191498 179.838638,161.166199 
	C176.986877,166.414810 174.677185,171.959396 171.795349,177.189941 
	C166.957275,185.971085 161.426239,188.915726 153.287338,187.500793 
	C145.676529,186.177704 142.458603,181.858429 144.526566,174.342453 
	C148.226730,160.894302 152.171112,147.498276 156.530991,134.250809 
	C161.203125,120.054466 166.472229,106.054581 171.644073,91.612579 
M199.382950,123.920723 
	C199.210556,124.562790 199.049789,125.208244 198.864059,125.846428 
	C195.061859,138.910645 197.768585,142.561050 211.621674,143.046600 
	C212.120636,143.064072 212.619705,143.078583 213.118820,143.090912 
	C219.395813,143.246048 220.184921,142.825836 219.824432,136.403915 
	C219.069824,122.960854 217.900192,109.540230 216.795441,96.119072 
	C216.690247,94.841194 215.840607,93.624596 214.939011,91.397491 
	C207.151794,101.601624 203.412231,112.385963 199.382950,123.920723 
z"/>
<path fill="#059669" opacity="1.000000" stroke="none" 
	d="
M998.527466,43.365295 
	C1000.772095,42.492729 1002.868774,41.286697 1004.799744,41.510532 
	C1009.225586,42.023575 1013.543091,43.406197 1017.956482,44.111240 
	C1021.986877,44.755119 1024.023071,43.306053 1023.811829,38.641388 
	C1023.450378,30.660681 1023.866455,22.647638 1023.654480,14.656171 
	C1023.533203,10.082917 1025.866699,8.141656 1029.917358,8.086635 
	C1050.697266,7.804368 1062.692993,14.214798 1067.030396,35.383549 
	C1069.398193,46.940273 1073.578003,58.268311 1074.658691,69.911255 
	C1076.113403,85.585564 1075.955200,101.483658 1075.434692,117.250900 
	C1074.506226,145.379608 1072.649414,173.476547 1071.493408,201.599625 
	C1071.185059,209.102219 1069.601440,215.706802 1062.505737,219.203339 
	C1055.453247,222.678528 1048.386963,220.847244 1042.123169,216.843994 
	C1032.432495,210.650650 1029.987671,200.483765 1029.133179,190.017105 
	C1028.430786,181.414413 1028.489746,172.722885 1028.711548,164.083542 
	C1028.810791,160.217361 1027.570557,157.783463 1023.981873,157.139389 
	C1015.500732,155.617340 1006.995544,154.024414 998.428772,153.256836 
	C992.833435,152.755463 989.321777,156.911667 986.830688,161.437653 
	C983.710449,167.106537 981.218262,173.131546 977.945374,178.703476 
	C973.260864,186.678574 967.839661,189.001160 959.627563,187.324081 
	C952.878052,185.945663 949.652527,181.672638 951.545715,175.016006 
	C956.088135,159.044449 960.438293,142.962631 966.121643,127.383362 
	C976.364441,99.305824 987.526245,71.563515 998.527466,43.365295 
M1022.618958,92.859833 
	C1021.391113,93.773331 1019.532776,94.426979 1019.032593,95.640419 
	C1013.930054,108.020538 1008.894714,120.434212 1004.201965,132.973755 
	C1002.857361,136.566605 1004.789856,139.836426 1008.465820,140.805634 
	C1013.061218,142.017288 1017.867920,142.450165 1022.596985,143.124039 
	C1025.619019,143.554672 1027.083008,141.830521 1026.874634,139.073257 
	C1025.724609,123.863434 1024.434326,108.664230 1022.618958,92.859833 
z"/>
<path fill="#059669" opacity="1.000000" stroke="none" 
	d="
M391.021423,180.052170 
	C380.330597,187.324722 369.399963,193.496155 356.830505,195.333191 
	C344.544708,197.128769 332.231812,195.984726 320.278046,192.478745 
	C318.281952,191.893295 316.707306,189.870865 314.937927,188.512436 
	C316.523407,187.020370 317.878754,185.091843 319.734924,184.113144 
	C327.081848,180.239426 334.867249,177.128250 341.948334,172.839752 
	C348.433685,168.912064 354.625092,164.263626 360.155518,159.088058 
	C363.186279,156.251740 364.582123,151.668381 366.715179,147.872787 
	C366.318695,147.364136 365.922180,146.855484 365.525696,146.346832 
	C359.834564,146.979996 354.081299,147.275497 348.463898,148.309296 
	C331.188873,151.488525 314.289246,149.494781 297.628632,144.811859 
	C293.054108,143.526062 288.571442,141.415176 284.499298,138.938614 
	C274.488190,132.850128 271.432831,125.106651 274.677460,113.844398 
	C276.275848,108.296318 278.350311,102.748489 281.115234,97.696320 
	C295.687286,71.069778 315.901154,49.602440 340.943268,32.446068 
	C362.246521,17.851162 383.175476,21.903757 403.950073,33.002888 
	C411.788086,37.190475 413.179718,41.506733 411.065582,50.069534 
	C406.739624,67.591072 400.385468,84.347771 390.945068,99.779465 
	C383.176636,112.478127 379.209076,114.057182 365.023895,109.702339 
	C359.383301,107.970665 353.860657,105.363647 348.833466,102.264404 
	C343.900665,99.223343 343.510040,95.963257 345.883148,90.698586 
	C348.204468,85.548630 350.703522,80.474022 352.862305,75.257805 
	C353.749023,73.115250 353.949158,70.688553 354.589478,67.817909 
	C336.370941,76.236298 311.684967,113.728821 313.682556,130.623093 
	C320.651215,129.582077 327.663239,128.852859 334.534027,127.437866 
	C346.559753,124.961258 358.303070,120.861626 370.879761,121.999855 
	C383.189301,123.113892 395.350677,124.932152 406.726471,130.038895 
	C419.216400,135.645752 421.676697,143.247864 415.067169,155.281921 
	C409.392303,165.614166 400.702484,173.082031 391.021423,180.052170 
z"/>
<path fill="#059669" opacity="1.000000" stroke="none" 
	d="
M812.023865,155.010620 
	C812.432068,136.197449 812.695618,117.877243 813.325684,99.569656 
	C813.472656,95.299469 811.838562,92.626846 808.564636,90.476379 
	C802.447021,86.458054 796.270691,82.525307 790.233459,78.389534 
	C783.706421,73.918205 783.186829,69.245483 789.737183,64.696648 
	C795.511780,60.686607 802.036743,57.264687 808.725708,55.149158 
	C837.824585,45.945980 867.796814,40.755455 898.240967,43.074871 
	C916.355042,44.454906 932.136658,53.575733 944.022400,67.883606 
	C948.821838,73.661095 948.183655,77.286583 941.848083,81.366875 
	C924.654358,92.440193 907.217285,103.135597 889.884338,113.993019 
	C884.528320,117.348030 879.112793,120.618027 873.880859,124.158150 
	C869.742615,126.958275 869.950256,128.641953 874.421082,130.664307 
	C890.446899,137.913605 906.129761,145.958618 923.315430,150.425507 
	C928.236755,151.704651 932.926270,154.121170 937.479248,156.484116 
	C940.440674,158.021042 944.500122,159.735550 943.334534,164.071640 
	C942.198853,168.295914 938.014038,167.901794 934.535400,167.955246 
	C921.730530,168.151993 909.345154,165.522690 897.357971,161.417572 
	C886.060669,157.548676 874.972961,153.020996 863.954102,148.399246 
	C854.019104,144.232086 849.988342,146.759766 848.979370,157.607681 
	C847.609314,172.337036 845.726624,187.019012 844.018616,201.716049 
	C843.866577,203.024246 843.484924,204.330887 843.035400,205.575180 
	C840.694580,212.053574 837.666504,213.805344 831.195312,211.633209 
	C827.303711,210.326965 823.523804,208.417465 820.040405,206.227570 
	C814.364258,202.659225 811.256653,197.816147 811.646667,190.479172 
	C812.264893,178.848557 811.939148,167.167755 812.023865,155.010620 
M850.393799,96.202209 
	C853.182190,98.295860 856.153870,99.914345 859.535583,97.703339 
	C870.807800,90.333382 882.086609,82.968811 893.200256,75.364471 
	C896.262817,73.268974 898.951599,70.454170 898.815613,65.617180 
	C883.075684,67.479691 868.022888,70.764137 853.545471,76.304291 
	C840.581116,81.265450 839.852234,85.719437 850.393799,96.202209 
z"/>
<path fill="#059669" opacity="1.000000" stroke="none" 
	d="
M48.647675,182.356018 
	C40.427013,175.947708 34.506424,168.442505 31.650532,158.538925 
	C29.374237,150.645264 25.119030,144.309433 17.106262,140.533768 
	C13.267519,138.724945 10.301684,134.847763 7.280778,131.591660 
	C5.105929,129.247467 5.923539,127.324188 9.168574,126.742119 
	C11.461249,126.330872 13.804081,126.142372 16.059345,125.588875 
	C28.537493,122.526390 36.338787,113.020859 37.918007,98.350708 
	C38.700161,91.084900 38.544228,83.722206 39.163578,76.433159 
	C39.504173,72.424736 37.819145,70.252228 34.391094,68.745453 
	C29.372751,66.539658 24.318172,64.371078 19.488586,61.793938 
	C14.768687,59.275330 8.075168,57.513969 8.232216,51.118694 
	C8.389625,44.708733 15.253785,43.392731 20.045929,42.124912 
	C39.141804,37.072849 58.354622,32.413792 77.648590,28.175802 
	C91.767960,25.074432 106.099617,22.950920 120.302437,20.213972 
	C129.431946,18.454670 135.010208,21.399202 136.254364,28.971516 
	C137.004654,33.538040 135.680328,37.540253 131.822525,39.853458 
	C126.736420,42.903168 121.339996,45.535828 115.842941,47.772587 
	C109.855164,50.209019 103.423561,51.592609 97.534958,54.218864 
	C94.598106,55.528667 91.280487,58.111671 90.124619,60.933655 
	C83.848465,76.256447 80.624123,92.390579 78.978928,108.842194 
	C78.884377,109.787704 79.107948,110.765038 79.273193,112.871140 
	C84.859741,110.905075 89.995117,109.218506 95.036865,107.287453 
	C99.532127,105.565681 103.828743,103.291710 108.379951,101.756180 
	C119.800873,97.902832 128.157425,104.601440 126.311974,116.627434 
	C125.680809,120.740456 123.501076,125.806549 120.335571,128.097092 
	C113.306526,133.183289 105.438278,137.310593 97.476784,140.849289 
	C89.917984,144.209000 81.814270,146.349945 73.931145,148.969528 
	C70.331863,150.165588 68.519539,152.249573 68.856903,156.343704 
	C69.211426,160.645981 69.161308,165.014954 68.875420,169.327423 
	C68.579475,173.791519 71.075439,175.335129 74.640228,174.550339 
	C80.259422,173.313278 85.950775,171.834824 91.161232,169.467377 
	C96.571388,167.009201 101.372414,163.242401 106.580055,160.295715 
	C110.326492,158.175827 114.164169,156.069611 118.203201,154.642288 
	C129.984406,150.479050 138.633606,156.281235 139.846771,168.783890 
	C140.200729,172.431595 139.466385,175.344513 136.665192,178.162872 
	C127.600182,187.283463 117.741692,194.996643 104.930832,197.972458 
	C90.414474,201.344467 76.827766,197.809814 63.826191,191.614502 
	C58.608894,189.128433 53.877129,185.623444 48.647675,182.356018 
z"/>
<path fill="#059669" opacity="1.000000" stroke="none" 
	d="
M1182.026367,66.967117 
	C1168.443359,72.223183 1158.145386,80.278610 1154.620117,94.796844 
	C1153.762817,98.327675 1153.371216,102.021942 1153.211914,105.660591 
	C1152.942993,111.802971 1154.302002,112.816277 1160.221436,111.309456 
	C1173.914429,107.823868 1187.576050,104.213562 1201.287109,100.801414 
	C1208.183472,99.085159 1214.512939,101.977425 1217.722778,108.069969 
	C1219.664185,111.754761 1219.717529,114.929214 1216.429810,118.385017 
	C1202.463257,133.065292 1184.514526,140.206253 1165.758911,145.974518 
	C1159.246826,147.977264 1152.794556,150.183945 1146.245483,152.053787 
	C1140.109741,153.805664 1136.209351,157.772354 1134.109375,163.587646 
	C1132.644043,167.645798 1131.532471,171.830338 1130.190186,175.934631 
	C1128.074707,182.402496 1124.849731,188.056183 1117.348145,188.976776 
	C1107.938354,190.131516 1099.406738,187.982315 1093.060303,180.385818 
	C1092.162842,179.311752 1092.216309,177.284943 1092.163330,175.688049 
	C1091.508423,155.938095 1096.566772,137.116898 1101.545654,118.278557 
	C1104.213257,108.185425 1107.887329,98.308777 1107.150391,87.527115 
	C1106.919067,84.142906 1105.939331,81.740021 1103.076904,80.166069 
	C1099.875977,78.406075 1096.589600,76.801895 1093.353760,75.104675 
	C1090.707031,73.716484 1087.811279,72.624016 1085.526245,70.780411 
	C1083.586914,69.215866 1081.439087,66.873444 1081.179932,64.664406 
	C1081.032227,63.406197 1084.258301,61.018627 1086.352783,60.345852 
	C1104.219604,54.606842 1121.993408,48.434597 1140.151733,43.784557 
	C1161.385254,38.346951 1182.945190,34.152664 1204.433105,29.758123 
	C1210.924927,28.430445 1218.425537,32.938938 1221.368652,38.815563 
	C1223.415405,42.902473 1222.677124,48.907303 1218.474487,51.919384 
	C1213.836182,55.243664 1208.525391,57.817234 1203.199219,59.946983 
	C1196.426758,62.655052 1189.344727,64.588661 1182.026367,66.967117 
z"/>
<path fill="#059669" opacity="1.000000" stroke="none" 
	d="
M745.570801,38.259602 
	C753.168762,40.856110 760.656250,42.727352 767.423523,46.060741 
	C775.306519,49.943737 780.429321,56.817749 780.534241,65.906662 
	C780.631348,74.323341 780.252380,82.877579 778.791565,91.142944 
	C777.338135,99.366180 773.376648,102.169189 765.066711,101.865860 
	C758.840271,101.638573 752.432312,100.917801 746.514954,99.090248 
	C739.373413,96.884613 737.414124,92.579262 738.177246,85.160622 
	C738.545227,81.583572 738.814331,77.996353 739.162598,74.020653 
	C734.247742,74.652252 731.860413,77.680962 730.892151,81.086464 
	C728.090637,90.940010 725.023499,100.842331 723.631348,110.942001 
	C721.728027,124.750397 721.106201,138.763672 724.507202,152.689270 
	C730.543152,153.585388 734.144165,150.174286 737.119080,146.063278 
	C740.918762,140.812576 744.237183,135.213989 748.028809,129.957001 
	C751.108765,125.686714 754.914734,122.328278 760.622681,121.900520 
	C772.693298,120.995926 781.936218,131.056168 780.538635,143.706543 
	C778.708679,160.269730 762.838745,176.959473 745.665405,179.779144 
	C731.302734,182.137314 717.089417,180.843109 703.326538,176.050629 
	C691.904724,172.073334 684.440796,165.103378 682.248169,152.126282 
	C677.589417,124.553856 679.554016,97.783775 688.885254,71.505280 
	C689.936707,68.544273 691.320190,65.676865 692.789062,62.892303 
	C703.516724,42.555321 717.291138,35.267166 740.166809,37.721878 
	C741.822571,37.899551 743.483398,38.029018 745.570801,38.259602 
z"/>
<path fill="#059669" opacity="1.000000" stroke="none" 
	d="
M1263.018555,147.951569 
	C1263.585815,123.328644 1264.035522,99.194061 1264.824585,75.070580 
	C1264.981201,70.285080 1263.019531,67.978729 1258.843262,66.779518 
	C1251.028931,64.535599 1243.136841,62.519985 1235.439819,59.926437 
	C1231.457153,58.584419 1227.305664,56.708931 1226.814453,50.890461 
	C1236.103027,48.781872 1245.280396,46.615089 1254.495850,44.623550 
	C1274.796631,40.236290 1295.085693,35.784760 1315.443359,31.675589 
	C1323.914673,29.965664 1332.019165,32.200901 1339.416748,36.351753 
	C1345.756470,39.909176 1345.589111,46.744320 1338.964844,49.949894 
	C1334.854614,51.938896 1330.173340,52.841728 1325.671875,53.909321 
	C1316.584961,56.064384 1314.580933,57.579407 1314.061401,66.805908 
	C1312.779419,89.566246 1312.368286,112.379280 1310.865356,135.122116 
	C1310.013550,148.015198 1308.559937,160.999161 1305.813721,173.601440 
	C1302.775879,187.542099 1296.977539,190.193222 1283.168213,186.540176 
	C1271.004272,183.322403 1265.929565,174.328949 1264.168457,162.864258 
	C1263.438354,158.110809 1263.382690,153.253738 1263.018555,147.951569 
z"/>
<path fill="#059669" opacity="1.000000" stroke="none" 
	d="
M487.861603,93.754227 
	C493.029388,80.927696 497.599854,68.239273 503.225098,56.037121 
	C506.805206,48.271179 511.311615,40.728130 516.567566,33.994434 
	C522.193787,26.786474 528.687561,26.083218 537.178772,29.804543 
	C538.696106,30.469528 540.181091,31.244593 541.589233,32.117023 
	C553.620667,39.571404 554.837341,42.262703 548.718750,54.643299 
	C530.317322,91.877525 511.758423,129.038315 492.756073,165.967941 
	C488.305237,174.617706 481.889465,182.261383 476.321503,190.329132 
	C473.722992,194.094284 469.930176,194.938019 465.729309,194.007797 
	C461.663727,193.107529 458.358429,191.010880 459.092773,186.236160 
	C460.296722,178.407974 461.665222,170.582764 463.487061,162.879944 
	C464.666016,157.895248 466.791534,153.136093 468.465485,148.266434 
	C471.838928,138.452652 471.630829,128.749954 465.931732,119.953712 
	C458.524780,108.521477 450.631836,97.396255 442.718079,86.302963 
	C437.113739,78.446922 430.917450,71.008499 425.433197,63.074150 
	C423.637482,60.476185 423.250031,56.904846 422.073761,53.339790 
	C429.570740,51.800255 435.671478,52.832138 440.356049,56.636734 
	C447.391144,62.350372 454.011017,68.714661 460.041229,75.484764 
	C465.440369,81.546394 469.581390,88.709145 474.682343,95.060928 
	C480.531891,102.344856 483.180847,101.999840 487.861603,93.754227 
z"/>
<path fill="#FBFBFB" opacity="1.000000" stroke="none" 
	d="
M199.547241,123.555023 
	C203.412231,112.385963 207.151794,101.601624 214.939011,91.397491 
	C215.840607,93.624596 216.690247,94.841194 216.795441,96.119072 
	C217.900192,109.540230 219.069824,122.960854 219.824432,136.403915 
	C220.184921,142.825836 219.395813,143.246048 213.118820,143.090912 
	C212.619705,143.078583 212.120636,143.064072 211.621674,143.046600 
	C197.768585,142.561050 195.061859,138.910645 198.864059,125.846428 
	C199.049789,125.208244 199.210556,124.562790 199.547241,123.555023 
z"/>
<path fill="#FBFBFB" opacity="1.000000" stroke="none" 
	d="
M1022.905518,93.160614 
	C1024.434326,108.664230 1025.724609,123.863434 1026.874634,139.073257 
	C1027.083008,141.830521 1025.619019,143.554672 1022.596985,143.124039 
	C1017.867920,142.450165 1013.061218,142.017288 1008.465820,140.805634 
	C1004.789856,139.836426 1002.857361,136.566605 1004.201965,132.973755 
	C1008.894714,120.434212 1013.930054,108.020538 1019.032593,95.640419 
	C1019.532776,94.426979 1021.391113,93.773331 1022.905518,93.160614 
z"/>
<path fill="#FBFCFC" opacity="1.000000" stroke="none" 
	d="
M850.101074,95.986053 
	C839.852234,85.719437 840.581116,81.265450 853.545471,76.304291 
	C868.022888,70.764137 883.075684,67.479691 898.815613,65.617180 
	C898.951599,70.454170 896.262817,73.268974 893.200256,75.364471 
	C882.086609,82.968811 870.807800,90.333382 859.535583,97.703339 
	C856.153870,99.914345 853.182190,98.295860 850.101074,95.986053 
z"/>
</svg>